<?xml version="1.0" encoding="UTF-8"?>
<svg version="1.1" xmlns="http://www.w3.org/2000/svg" width="772" height="502">
<path d="M0 0 C1.13211914 -0.01063477 1.13211914 -0.01063477 2.28710938 -0.02148438 C8.26359166 0.04578339 13.00409836 1.17735207 17.7734375 5.015625 C18.24007813 5.56734375 18.70671875 6.1190625 19.1875 6.6875 C19.91066406 7.49960938 19.91066406 7.49960938 20.6484375 8.328125 C21.8125 10.4375 21.8125 10.4375 22.8125 17.4375 C56.8025 17.4375 90.7925 17.4375 125.8125 17.4375 C126.1425 15.1275 126.4725 12.8175 126.8125 10.4375 C127.9765625 8.328125 127.9765625 8.328125 129.4375 6.6875 C129.90414063 6.13578125 130.37078125 5.5840625 130.8515625 5.015625 C138.07617802 -0.79860741 146.67542109 -0.49987634 155.47998047 0.13574219 C161.24098058 0.88104218 166.43271843 3.1994743 171.70605469 5.53027344 C175.56472026 7.1921651 179.51005509 8.63498955 183.4375 10.125 C184.91040673 10.68735655 186.38184821 11.25357084 187.8515625 11.82421875 C188.53935791 12.09089355 189.22715332 12.35756836 189.93579102 12.63232422 C191.8125 13.4375 191.8125 13.4375 194.56640625 15.11328125 C199.6409958 17.18342067 204.6959846 16.88380054 210.125 16.9375 C232.72382626 17.49353439 256.9072599 19.09220058 277.8125 28.4375 C281.33327901 29.71353924 284.86981337 30.9357119 288.41015625 32.15625 C291.69231577 33.39224118 294.7060691 34.81413934 297.8125 36.4375 C298.67645386 36.87860107 298.67645386 36.87860107 299.55786133 37.32861328 C307.10487395 41.1867094 314.22124705 45.06731092 320.8125 50.4375 C322.8704579 52.04795565 324.93216003 53.65235792 327 55.25 C327.8194812 55.88687744 327.8194812 55.88687744 328.65551758 56.53662109 C333.75721722 60.46944375 339.05763264 64.06741039 344.42578125 67.625 C345.21339844 68.223125 346.00101563 68.82125 346.8125 69.4375 C346.8125 70.0975 346.8125 70.7575 346.8125 71.4375 C347.36808594 71.52902344 347.92367187 71.62054688 348.49609375 71.71484375 C351.45262132 72.63720058 353.40101364 74.13813397 355.875 76 C356.84050781 76.72058594 357.80601562 77.44117187 358.80078125 78.18359375 C360.29158203 79.29927734 360.29158203 79.29927734 361.8125 80.4375 C363.72781934 81.81437615 365.64444507 83.18943723 367.5625 84.5625 C370.68559428 86.82496887 373.67983206 89.1265584 376.5625 91.6875 C379.15364421 93.97848802 381.81999398 95.61047667 384.875 97.25390625 C388.21657465 99.29523109 391.14754358 101.8576203 394.16796875 104.33984375 C397.63950525 107.09348496 401.28258562 109.54847972 404.9765625 111.9921875 C405.58242188 112.46914062 406.18828125 112.94609375 406.8125 113.4375 C406.8125 114.0975 406.8125 114.7575 406.8125 115.4375 C407.67270752 115.59593384 407.67270752 115.59593384 408.55029297 115.75756836 C411.16994212 116.54493323 412.81702174 117.68311344 415.0078125 119.31640625 C415.8016333 119.90437988 416.5954541 120.49235352 417.41333008 121.09814453 C418.24630615 121.72575684 419.07928223 122.35336914 419.9375 123 C421.21693481 123.95302002 421.21693481 123.95302002 422.5222168 124.92529297 C427.72595429 128.8173015 432.8407836 132.79459409 437.87890625 136.8984375 C441.4596757 139.74858531 445.31979412 142.12727778 449.1875 144.5625 C450.05375 145.18125 450.92 145.8 451.8125 146.4375 C451.8125 147.0975 451.8125 147.7575 451.8125 148.4375 C452.4725 148.4375 453.1325 148.4375 453.8125 148.4375 C457.15200879 153.84240781 456.487308 160.3364009 455.8125 166.4375 C454.16024992 170.67094763 451.80089281 172.78555163 448.046875 175.26171875 C443.88599142 178.06076724 440.23157834 181.30463991 436.4921875 184.63476562 C433.58311876 187.16304825 431.49588101 188.52570038 427.8125 189.4375 C427.53277344 190.01371094 427.25304687 190.58992187 426.96484375 191.18359375 C425.25116856 194.53542623 422.35180305 196.33002445 419.375 198.5 C416.00829853 200.99261836 412.73221721 203.41991517 409.8125 206.4375 C408.17954337 207.80716688 406.53189923 209.15939578 404.875 210.5 C401.72218379 213.05588301 398.58370395 215.62030938 395.4921875 218.25 C394.95070068 218.70882568 394.40921387 219.16765137 393.85131836 219.64038086 C392.31362507 220.94597835 390.77977393 222.25609691 389.24609375 223.56640625 C386.8125 225.4375 386.8125 225.4375 384.8125 225.4375 C384.4825 226.4275 384.1525 227.4175 383.8125 228.4375 C382.2109375 229.83203125 382.2109375 229.83203125 380.1875 231.25 C377.40628104 233.25148436 374.7577872 235.29628695 372.1875 237.5625 C363.53847092 245.03745274 356.66393014 246.9492453 345.37109375 246.74609375 C336.55343148 245.98144466 329.81451879 242.06812738 322.57421875 237.234375 C318.94906154 234.87571543 315.17213327 232.87156268 311.359375 230.8359375 C309.13177715 229.61280862 307.00564349 228.31977698 304.875 226.9375 C300.61737204 224.20486094 296.1044939 222.05153853 291.546875 219.8671875 C289.06641334 218.5702604 287.02040678 217.14028769 284.8125 215.4375 C284.79207358 217.0970649 284.79207358 217.0970649 284.77123451 218.79015636 C284.43908892 245.74151285 284.09638065 272.69271936 283.74267006 299.64380169 C283.5718598 312.67727181 283.40445081 325.71076887 283.24511719 338.74438477 C283.10619336 350.10775088 282.96081818 361.47101325 282.80777586 372.8341983 C282.72700474 378.84791695 282.64941026 384.86163791 282.57954788 390.875494 C282.51360554 396.54311673 282.43899695 402.21056112 282.35791969 407.87798691 C282.32975776 409.95107173 282.30468344 412.02420133 282.28303719 414.09736443 C282.17984139 423.82464169 282.03813406 433.29798816 280.25882435 442.88684559 C279.58680501 446.72730177 279.51571842 450.51673993 279.50390625 454.40625 C279.4787998 455.98177539 279.45340121 457.55729614 279.42773438 459.1328125 C279.39882788 461.55305239 279.37472665 463.97321257 279.35620117 466.39355469 C279.33455563 468.77313742 279.29519319 471.15193882 279.25390625 473.53125 C279.25379044 474.25211792 279.25367462 474.97298584 279.2535553 475.71569824 C279.16659675 480.13840537 278.49589289 482.906699 275.8125 486.4375 C270.13963305 491.74039737 266.00197513 493.68615387 258.26659584 493.69197559 C257.61965342 493.69518207 256.972711 493.69838855 256.30616426 493.70169219 C254.13538529 493.71000259 251.96488147 493.70406438 249.7940979 493.69819641 C248.22322068 493.70121663 246.65234494 493.70510545 245.0814718 493.70978898 C240.76225795 493.72009453 236.44312686 493.71788066 232.12390614 493.71360838 C227.46668407 493.71114579 222.80948218 493.72014953 218.15226746 493.72764587 C209.02719997 493.74040801 199.90216189 493.74218467 190.77708699 493.73984561 C183.3611676 493.73806394 175.94525715 493.73980884 168.52933884 493.74407005 C166.94726765 493.74496284 166.94726765 493.74496284 165.33323544 493.74587366 C163.19070622 493.74708538 161.04817701 493.74829952 158.9056478 493.74951603 C138.80389132 493.76039746 118.7021516 493.75822626 98.60039417 493.75213119 C80.20491883 493.74696178 61.80949644 493.75821703 43.41403158 493.77722941 C24.53245727 493.79659481 5.65090802 493.80486607 -13.23067629 493.80110615 C-23.83399168 493.7991921 -34.437262 493.8017015 -45.04056931 493.81582069 C-54.06748575 493.82771896 -63.09432938 493.82915689 -72.1212468 493.81703053 C-76.72765221 493.81113084 -81.33392434 493.81007245 -85.94032097 493.82203293 C-90.15707035 493.83285453 -94.37357458 493.82983291 -98.59031232 493.81577124 C-100.11584919 493.81311402 -101.64140504 493.81552294 -103.16692333 493.82350711 C-105.2415489 493.83361158 -107.31532199 493.82519365 -109.38991356 493.81223011 C-111.1179423 493.81231263 -111.1179423 493.81231263 -112.88088071 493.81239682 C-119.45808422 493.06668875 -123.93286867 490.42149671 -128.1875 485.4375 C-130.65674352 481.73525638 -130.49998645 477.93017994 -130.53125 473.62890625 C-130.5531842 472.48505714 -130.5531842 472.48505714 -130.57556152 471.31809998 C-130.6219503 468.8787871 -130.65614022 466.43954941 -130.6875 464 C-130.72927924 460.81352988 -130.78333496 457.62757144 -130.84375 454.44140625 C-130.85166565 453.37968956 -130.85166565 453.37968956 -130.85974121 452.29652405 C-130.93971659 448.08229577 -131.40554336 444.12491863 -132.17404175 439.97991943 C-133.67276398 430.37768775 -133.58867069 420.74091782 -133.68994141 411.04174805 C-133.71901007 408.9019159 -133.74888346 406.76209456 -133.77949524 404.62228394 C-133.85983632 398.8485286 -133.92900005 393.07468839 -133.99607515 387.30076575 C-134.06825352 381.25354957 -134.15082541 375.20647526 -134.23226929 369.15937805 C-134.38471647 357.72408089 -134.52788944 346.2886874 -134.66768587 334.85322934 C-134.82737576 321.82768732 -134.99747253 308.80228759 -135.16842008 295.7768892 C-135.51964885 268.99723464 -135.8578847 242.2174287 -136.1875 215.4375 C-137.19526489 216.04585693 -137.19526489 216.04585693 -138.22338867 216.66650391 C-139.1126001 217.20194824 -140.00181152 217.73739258 -140.91796875 218.2890625 C-141.79606201 218.81838379 -142.67415527 219.34770508 -143.57885742 219.89306641 C-145.86412125 221.24604525 -148.1661169 222.54590788 -150.5 223.8125 C-155.47696292 226.54008822 -160.26897652 229.55456829 -165.07421875 232.5703125 C-168.05270589 234.35665736 -171.07948488 235.89164996 -174.1875 237.4375 C-176.17401832 238.61266038 -178.15318689 239.80032921 -180.125 241 C-189.65142654 246.52695983 -198.89921102 247.99535755 -209.84765625 245.9375 C-215.84690768 244.12640523 -220.71046626 240.95522423 -225.08984375 236.50390625 C-227.94996702 233.68639189 -231.13516113 231.40519549 -234.359375 229.0234375 C-234.96265625 228.50007812 -235.5659375 227.97671875 -236.1875 227.4375 C-236.1875 226.7775 -236.1875 226.1175 -236.1875 225.4375 C-236.89261719 225.21578125 -237.59773438 224.9940625 -238.32421875 224.765625 C-241.82199697 223.14319035 -244.26879489 220.83759766 -247 218.1875 C-250.9506935 214.45454221 -254.91408273 211.00331985 -259.33203125 207.82421875 C-262.05994166 205.78546465 -264.55739728 203.50791433 -267.09375 201.23828125 C-270.07790859 198.67168216 -273.23048331 196.34419493 -276.40234375 194.015625 C-278.1875 192.4375 -278.1875 192.4375 -279.1875 189.4375 C-280.239375 189.03337891 -280.239375 189.03337891 -281.3125 188.62109375 C-285.28925351 186.98392485 -288.01282676 184.35245747 -291.1875 181.5 C-295.04095923 178.06235208 -298.68782847 175.01784261 -303.1875 172.4375 C-307.30759412 168.31740588 -307.47226954 165.10529538 -307.5625 159.3125 C-307.51750481 155.12794763 -307.42362197 152.03318412 -305.1875 148.4375 C-304.5275 148.4375 -303.8675 148.4375 -303.1875 148.4375 C-302.8575 147.4475 -302.5275 146.4575 -302.1875 145.4375 C-300.23767465 144.03181196 -298.22799422 142.7079964 -296.1875 141.4375 C-292.58605516 139.14567147 -289.23917127 136.69674178 -285.9375 134 C-281.00383055 130.01685402 -275.93366743 126.23849317 -270.8125 122.5 C-270.02713867 121.92000244 -269.24177734 121.34000488 -268.43261719 120.74243164 C-267.68399414 120.19965576 -266.93537109 119.65687988 -266.1640625 119.09765625 C-265.49455566 118.60918213 -264.82504883 118.12070801 -264.13525391 117.61743164 C-262.13965829 116.40851792 -260.43025124 115.99463197 -258.1875 115.4375 C-257.88199219 114.82648438 -257.57648438 114.21546875 -257.26171875 113.5859375 C-255.77801565 110.61853129 -253.83837539 109.73029023 -251 108.0625 C-246.95798558 105.59734426 -243.43060606 103.05629546 -239.921875 99.8984375 C-237.27735853 97.6708493 -234.37860986 95.86854132 -231.484375 93.984375 C-228.48832943 91.96663003 -225.68699942 89.74407299 -222.85546875 87.50390625 C-217.58189412 83.4193953 -212.16778563 79.517795 -206.76708984 75.60351562 C-205.4609485 74.63935318 -204.18836668 73.62991037 -202.92578125 72.609375 C-201.1875 71.4375 -201.1875 71.4375 -198.1875 71.4375 C-197.6925 69.9525 -197.6925 69.9525 -197.1875 68.4375 C-194.921875 66.74609375 -194.921875 66.74609375 -191.9375 64.875 C-187.3376798 61.90121351 -182.94100428 58.80818619 -178.625 55.4375 C-177.53125337 54.58853733 -176.43750339 53.73957896 -175.34375 52.890625 C-174.3021875 52.08109375 -173.260625 51.2715625 -172.1875 50.4375 C-164.86875359 44.76748217 -157.58417425 40.3340651 -149.1875 36.4375 C-147.60775391 35.6640625 -147.60775391 35.6640625 -145.99609375 34.875 C-139.57275944 31.78314233 -133.21532645 29.33800969 -126.35546875 27.39453125 C-123.95428294 26.6691422 -121.70772746 25.87183441 -119.3828125 24.953125 C-114.96336523 23.27135126 -110.51004725 22.27283109 -105.875 21.375 C-105.00109619 21.20508545 -104.12719238 21.0351709 -103.22680664 20.86010742 C-91.95321097 18.7454834 -80.7425101 17.52133308 -69.2734375 17.23828125 C-68.07082275 17.20694092 -66.86820801 17.17560059 -65.62915039 17.14331055 C-63.26149632 17.09058983 -60.89334718 17.05604653 -58.52514648 17.04223633 C-52.64728776 16.92589875 -48.29790289 16.53660727 -43.19702148 13.55615234 C-39.15130718 11.30400036 -34.66897094 9.97155304 -30.3125 8.4375 C-28.43952035 7.77247532 -26.56712017 7.10581627 -24.6953125 6.4375 C-23.7762915 6.11209229 -22.85727051 5.78668457 -21.91040039 5.45141602 C-19.24969394 4.46065892 -16.66908645 3.34770397 -14.06640625 2.21484375 C-9.27918423 0.28157898 -5.12525801 -0.13779965 0 0 Z " fill="#F7F7F4" transform="translate(311.1875,5.5625)"/>
<path d="M0 0 C1.13211914 -0.01063477 1.13211914 -0.01063477 2.28710938 -0.02148438 C8.26359166 0.04578339 13.00409836 1.17735207 17.7734375 5.015625 C18.24007813 5.56734375 18.70671875 6.1190625 19.1875 6.6875 C19.91066406 7.49960938 19.91066406 7.49960938 20.6484375 8.328125 C21.8125 10.4375 21.8125 10.4375 22.8125 17.4375 C56.8025 17.4375 90.7925 17.4375 125.8125 17.4375 C126.1425 15.1275 126.4725 12.8175 126.8125 10.4375 C127.9765625 8.328125 127.9765625 8.328125 129.4375 6.6875 C129.90414063 6.13578125 130.37078125 5.5840625 130.8515625 5.015625 C138.07617802 -0.79860741 146.67542109 -0.49987634 155.47998047 0.13574219 C161.24098058 0.88104218 166.43271843 3.1994743 171.70605469 5.53027344 C175.56472026 7.1921651 179.51005509 8.63498955 183.4375 10.125 C184.91040673 10.68735655 186.38184821 11.25357084 187.8515625 11.82421875 C188.53935791 12.09089355 189.22715332 12.35756836 189.93579102 12.63232422 C191.8125 13.4375 191.8125 13.4375 194.56640625 15.11328125 C199.6409958 17.18342067 204.6959846 16.88380054 210.125 16.9375 C232.72382626 17.49353439 256.9072599 19.09220058 277.8125 28.4375 C281.33327901 29.71353924 284.86981337 30.9357119 288.41015625 32.15625 C291.69231577 33.39224118 294.7060691 34.81413934 297.8125 36.4375 C298.67645386 36.87860107 298.67645386 36.87860107 299.55786133 37.32861328 C307.10487395 41.1867094 314.22124705 45.06731092 320.8125 50.4375 C322.8704579 52.04795565 324.93216003 53.65235792 327 55.25 C327.8194812 55.88687744 327.8194812 55.88687744 328.65551758 56.53662109 C333.75721722 60.46944375 339.05763264 64.06741039 344.42578125 67.625 C345.21339844 68.223125 346.00101563 68.82125 346.8125 69.4375 C346.8125 70.0975 346.8125 70.7575 346.8125 71.4375 C347.36808594 71.52902344 347.92367187 71.62054688 348.49609375 71.71484375 C351.45262132 72.63720058 353.40101364 74.13813397 355.875 76 C356.84050781 76.72058594 357.80601562 77.44117187 358.80078125 78.18359375 C360.29158203 79.29927734 360.29158203 79.29927734 361.8125 80.4375 C363.72781934 81.81437615 365.64444507 83.18943723 367.5625 84.5625 C370.68559428 86.82496887 373.67983206 89.1265584 376.5625 91.6875 C379.15364421 93.97848802 381.81999398 95.61047667 384.875 97.25390625 C388.21657465 99.29523109 391.14754358 101.8576203 394.16796875 104.33984375 C397.63950525 107.09348496 401.28258562 109.54847972 404.9765625 111.9921875 C405.58242188 112.46914062 406.18828125 112.94609375 406.8125 113.4375 C406.8125 114.0975 406.8125 114.7575 406.8125 115.4375 C407.67270752 115.59593384 407.67270752 115.59593384 408.55029297 115.75756836 C411.16994212 116.54493323 412.81702174 117.68311344 415.0078125 119.31640625 C415.8016333 119.90437988 416.5954541 120.49235352 417.41333008 121.09814453 C418.24630615 121.72575684 419.07928223 122.35336914 419.9375 123 C421.21693481 123.95302002 421.21693481 123.95302002 422.5222168 124.92529297 C427.72595429 128.8173015 432.8407836 132.79459409 437.87890625 136.8984375 C441.4596757 139.74858531 445.31979412 142.12727778 449.1875 144.5625 C450.05375 145.18125 450.92 145.8 451.8125 146.4375 C451.8125 147.0975 451.8125 147.7575 451.8125 148.4375 C452.4725 148.4375 453.1325 148.4375 453.8125 148.4375 C457.15200879 153.84240781 456.487308 160.3364009 455.8125 166.4375 C454.16024992 170.67094763 451.80089281 172.78555163 448.046875 175.26171875 C443.88599142 178.06076724 440.23157834 181.30463991 436.4921875 184.63476562 C433.58311876 187.16304825 431.49588101 188.52570038 427.8125 189.4375 C427.53277344 190.01371094 427.25304687 190.58992187 426.96484375 191.18359375 C425.25116856 194.53542623 422.35180305 196.33002445 419.375 198.5 C416.00829853 200.99261836 412.73221721 203.41991517 409.8125 206.4375 C408.17954337 207.80716688 406.53189923 209.15939578 404.875 210.5 C401.72218379 213.05588301 398.58370395 215.62030938 395.4921875 218.25 C394.95070068 218.70882568 394.40921387 219.16765137 393.85131836 219.64038086 C392.31362507 220.94597835 390.77977393 222.25609691 389.24609375 223.56640625 C386.8125 225.4375 386.8125 225.4375 384.8125 225.4375 C384.4825 226.4275 384.1525 227.4175 383.8125 228.4375 C382.2109375 229.83203125 382.2109375 229.83203125 380.1875 231.25 C377.40628104 233.25148436 374.7577872 235.29628695 372.1875 237.5625 C363.53847092 245.03745274 356.66393014 246.9492453 345.37109375 246.74609375 C336.55343148 245.98144466 329.81451879 242.06812738 322.57421875 237.234375 C318.94906154 234.87571543 315.17213327 232.87156268 311.359375 230.8359375 C309.13177715 229.61280862 307.00564349 228.31977698 304.875 226.9375 C300.61737204 224.20486094 296.1044939 222.05153853 291.546875 219.8671875 C289.06641334 218.5702604 287.02040678 217.14028769 284.8125 215.4375 C284.79207358 217.0970649 284.79207358 217.0970649 284.77123451 218.79015636 C284.43908892 245.74151285 284.09638065 272.69271936 283.74267006 299.64380169 C283.5718598 312.67727181 283.40445081 325.71076887 283.24511719 338.74438477 C283.10619336 350.10775088 282.96081818 361.47101325 282.80777586 372.8341983 C282.72700474 378.84791695 282.64941026 384.86163791 282.57954788 390.875494 C282.51360554 396.54311673 282.43899695 402.21056112 282.35791969 407.87798691 C282.32975776 409.95107173 282.30468344 412.02420133 282.28303719 414.09736443 C282.17984139 423.82464169 282.03813406 433.29798816 280.25882435 442.88684559 C279.58680501 446.72730177 279.51571842 450.51673993 279.50390625 454.40625 C279.4787998 455.98177539 279.45340121 457.55729614 279.42773438 459.1328125 C279.39882788 461.55305239 279.37472665 463.97321257 279.35620117 466.39355469 C279.33455563 468.77313742 279.29519319 471.15193882 279.25390625 473.53125 C279.25379044 474.25211792 279.25367462 474.97298584 279.2535553 475.71569824 C279.16659675 480.13840537 278.49589289 482.906699 275.8125 486.4375 C270.13963305 491.74039737 266.00197513 493.68615387 258.26659584 493.69197559 C257.61965342 493.69518207 256.972711 493.69838855 256.30616426 493.70169219 C254.13538529 493.71000259 251.96488147 493.70406438 249.7940979 493.69819641 C248.22322068 493.70121663 246.65234494 493.70510545 245.0814718 493.70978898 C240.76225795 493.72009453 236.44312686 493.71788066 232.12390614 493.71360838 C227.46668407 493.71114579 222.80948218 493.72014953 218.15226746 493.72764587 C209.02719997 493.74040801 199.90216189 493.74218467 190.77708699 493.73984561 C183.3611676 493.73806394 175.94525715 493.73980884 168.52933884 493.74407005 C166.94726765 493.74496284 166.94726765 493.74496284 165.33323544 493.74587366 C163.19070622 493.74708538 161.04817701 493.74829952 158.9056478 493.74951603 C138.80389132 493.76039746 118.7021516 493.75822626 98.60039417 493.75213119 C80.20491883 493.74696178 61.80949644 493.75821703 43.41403158 493.77722941 C24.53245727 493.79659481 5.65090802 493.80486607 -13.23067629 493.80110615 C-23.83399168 493.7991921 -34.437262 493.8017015 -45.04056931 493.81582069 C-54.06748575 493.82771896 -63.09432938 493.82915689 -72.1212468 493.81703053 C-76.72765221 493.81113084 -81.33392434 493.81007245 -85.94032097 493.82203293 C-90.15707035 493.83285453 -94.37357458 493.82983291 -98.59031232 493.81577124 C-100.11584919 493.81311402 -101.64140504 493.81552294 -103.16692333 493.82350711 C-105.2415489 493.83361158 -107.31532199 493.82519365 -109.38991356 493.81223011 C-111.1179423 493.81231263 -111.1179423 493.81231263 -112.88088071 493.81239682 C-119.45808422 493.06668875 -123.93286867 490.42149671 -128.1875 485.4375 C-130.65674352 481.73525638 -130.49998645 477.93017994 -130.53125 473.62890625 C-130.5531842 472.48505714 -130.5531842 472.48505714 -130.57556152 471.31809998 C-130.6219503 468.8787871 -130.65614022 466.43954941 -130.6875 464 C-130.72927924 460.81352988 -130.78333496 457.62757144 -130.84375 454.44140625 C-130.85166565 453.37968956 -130.85166565 453.37968956 -130.85974121 452.29652405 C-130.93971659 448.08229577 -131.40554336 444.12491863 -132.17404175 439.97991943 C-133.67276398 430.37768775 -133.58867069 420.74091782 -133.68994141 411.04174805 C-133.71901007 408.9019159 -133.74888346 406.76209456 -133.77949524 404.62228394 C-133.85983632 398.8485286 -133.92900005 393.07468839 -133.99607515 387.30076575 C-134.06825352 381.25354957 -134.15082541 375.20647526 -134.23226929 369.15937805 C-134.38471647 357.72408089 -134.52788944 346.2886874 -134.66768587 334.85322934 C-134.82737576 321.82768732 -134.99747253 308.80228759 -135.16842008 295.7768892 C-135.51964885 268.99723464 -135.8578847 242.2174287 -136.1875 215.4375 C-137.19526489 216.04585693 -137.19526489 216.04585693 -138.22338867 216.66650391 C-139.1126001 217.20194824 -140.00181152 217.73739258 -140.91796875 218.2890625 C-141.79606201 218.81838379 -142.67415527 219.34770508 -143.57885742 219.89306641 C-145.86412125 221.24604525 -148.1661169 222.54590788 -150.5 223.8125 C-155.47696292 226.54008822 -160.26897652 229.55456829 -165.07421875 232.5703125 C-168.05270589 234.35665736 -171.07948488 235.89164996 -174.1875 237.4375 C-176.17401832 238.61266038 -178.15318689 239.80032921 -180.125 241 C-189.65142654 246.52695983 -198.89921102 247.99535755 -209.84765625 245.9375 C-215.84690768 244.12640523 -220.71046626 240.95522423 -225.08984375 236.50390625 C-227.94996702 233.68639189 -231.13516113 231.40519549 -234.359375 229.0234375 C-234.96265625 228.50007812 -235.5659375 227.97671875 -236.1875 227.4375 C-236.1875 226.7775 -236.1875 226.1175 -236.1875 225.4375 C-236.89261719 225.21578125 -237.59773438 224.9940625 -238.32421875 224.765625 C-241.82199697 223.14319035 -244.26879489 220.83759766 -247 218.1875 C-250.9506935 214.45454221 -254.91408273 211.00331985 -259.33203125 207.82421875 C-262.05994166 205.78546465 -264.55739728 203.50791433 -267.09375 201.23828125 C-270.07790859 198.67168216 -273.23048331 196.34419493 -276.40234375 194.015625 C-278.1875 192.4375 -278.1875 192.4375 -279.1875 189.4375 C-280.239375 189.03337891 -280.239375 189.03337891 -281.3125 188.62109375 C-285.28925351 186.98392485 -288.01282676 184.35245747 -291.1875 181.5 C-295.04095923 178.06235208 -298.68782847 175.01784261 -303.1875 172.4375 C-307.30759412 168.31740588 -307.47226954 165.10529538 -307.5625 159.3125 C-307.51750481 155.12794763 -307.42362197 152.03318412 -305.1875 148.4375 C-304.5275 148.4375 -303.8675 148.4375 -303.1875 148.4375 C-302.8575 147.4475 -302.5275 146.4575 -302.1875 145.4375 C-300.23767465 144.03181196 -298.22799422 142.7079964 -296.1875 141.4375 C-292.58605516 139.14567147 -289.23917127 136.69674178 -285.9375 134 C-281.00383055 130.01685402 -275.93366743 126.23849317 -270.8125 122.5 C-270.02713867 121.92000244 -269.24177734 121.34000488 -268.43261719 120.74243164 C-267.68399414 120.19965576 -266.93537109 119.65687988 -266.1640625 119.09765625 C-265.49455566 118.60918213 -264.82504883 118.12070801 -264.13525391 117.61743164 C-262.13965829 116.40851792 -260.43025124 115.99463197 -258.1875 115.4375 C-257.88199219 114.82648438 -257.57648438 114.21546875 -257.26171875 113.5859375 C-255.77801565 110.61853129 -253.83837539 109.73029023 -251 108.0625 C-246.95798558 105.59734426 -243.43060606 103.05629546 -239.921875 99.8984375 C-237.27735853 97.6708493 -234.37860986 95.86854132 -231.484375 93.984375 C-228.48832943 91.96663003 -225.68699942 89.74407299 -222.85546875 87.50390625 C-217.58189412 83.4193953 -212.16778563 79.517795 -206.76708984 75.60351562 C-205.4609485 74.63935318 -204.18836668 73.62991037 -202.92578125 72.609375 C-201.1875 71.4375 -201.1875 71.4375 -198.1875 71.4375 C-197.6925 69.9525 -197.6925 69.9525 -197.1875 68.4375 C-194.921875 66.74609375 -194.921875 66.74609375 -191.9375 64.875 C-187.3376798 61.90121351 -182.94100428 58.80818619 -178.625 55.4375 C-177.53125337 54.58853733 -176.43750339 53.73957896 -175.34375 52.890625 C-174.3021875 52.08109375 -173.260625 51.2715625 -172.1875 50.4375 C-164.86875359 44.76748217 -157.58417425 40.3340651 -149.1875 36.4375 C-147.60775391 35.6640625 -147.60775391 35.6640625 -145.99609375 34.875 C-139.57275944 31.78314233 -133.21532645 29.33800969 -126.35546875 27.39453125 C-123.95428294 26.6691422 -121.70772746 25.87183441 -119.3828125 24.953125 C-114.96336523 23.27135126 -110.51004725 22.27283109 -105.875 21.375 C-105.00109619 21.20508545 -104.12719238 21.0351709 -103.22680664 20.86010742 C-91.95321097 18.7454834 -80.7425101 17.52133308 -69.2734375 17.23828125 C-68.07082275 17.20694092 -66.86820801 17.17560059 -65.62915039 17.14331055 C-63.26149632 17.09058983 -60.89334718 17.05604653 -58.52514648 17.04223633 C-52.64728776 16.92589875 -48.29790289 16.53660727 -43.19702148 13.55615234 C-39.15130718 11.30400036 -34.66897094 9.97155304 -30.3125 8.4375 C-28.43952035 7.77247532 -26.56712017 7.10581627 -24.6953125 6.4375 C-23.7762915 6.11209229 -22.85727051 5.78668457 -21.91040039 5.45141602 C-19.24969394 4.46065892 -16.66908645 3.34770397 -14.06640625 2.21484375 C-9.27918423 0.28157898 -5.12525801 -0.13779965 0 0 Z M-20.91308594 11.47851562 C-23.43037429 12.53990556 -25.96558229 13.54674287 -28.5078125 14.546875 C-32.00342657 15.92387829 -35.49785471 17.303229 -38.984375 18.703125 C-39.69948242 18.98961914 -40.41458984 19.27611328 -41.15136719 19.57128906 C-43.2056411 20.40008544 -43.2056411 20.40008544 -45.11157227 21.52661133 C-47.71615185 22.66946519 -49.76428295 22.70927025 -52.60546875 22.74609375 C-53.68256104 22.76905518 -54.75965332 22.7920166 -55.86938477 22.81567383 C-57.60466431 22.84504028 -57.60466431 22.84504028 -59.375 22.875 C-80.85014268 23.46820409 -104.78732466 24.55378478 -124.73828125 33.39453125 C-127.64987349 34.63439589 -130.61809882 35.57634714 -133.625 36.5625 C-139.70044431 38.7118631 -145.35346093 41.39013584 -151.0625 44.375 C-151.84681396 44.78186035 -152.63112793 45.1887207 -153.43920898 45.60791016 C-158.74258101 48.44484594 -163.47371581 51.71140732 -168.1875 55.4375 C-169.25513587 56.26832229 -170.32283969 57.09905728 -171.390625 57.9296875 C-172.39609375 58.71601562 -173.4015625 59.50234375 -174.4375 60.3125 C-179.70355027 64.40546644 -185.11198405 68.1410226 -190.7265625 71.74609375 C-193.12399884 73.28302827 -193.12399884 73.28302827 -194.66796875 74.921875 C-196.83324282 77.08158281 -199.31274908 78.58666938 -201.875 80.25 C-208.52070904 84.6299451 -214.77361437 89.28355204 -220.9375 94.3125 C-225.51012805 98.00146067 -230.30576505 101.20964978 -235.22265625 104.41796875 C-238.9693252 106.9700476 -242.45438644 109.77349833 -245.93359375 112.67578125 C-248.1875 114.4375 -248.1875 114.4375 -250.78515625 115.98046875 C-253.00313497 117.32568186 -254.38053929 118.61695312 -256.1875 120.4375 C-258.14643736 121.84117023 -260.12880222 123.21234441 -262.125 124.5625 C-270.2910329 130.13902275 -278.18233854 136.05242364 -285.9375 142.1875 C-289.29561597 144.83125312 -292.74229975 147.0950513 -296.4609375 149.19921875 C-299.37974286 151.2925701 -300.96304744 153.28718064 -301.65625 156.83984375 C-301.6665625 157.67644531 -301.676875 158.51304687 -301.6875 159.375 C-301.7184375 160.20902344 -301.749375 161.04304687 -301.78125 161.90234375 C-299.78993975 170.40471447 -285.92645146 178.03789588 -279.0390625 182.953125 C-277.1875 184.4375 -277.1875 184.4375 -274.796875 186.859375 C-272.26511419 189.36081532 -269.70105348 191.36615633 -266.8125 193.4375 C-261.19953136 197.57991228 -255.94302192 202.02586102 -250.70141602 206.62548828 C-246.08446373 210.67490428 -241.38372916 214.58594697 -236.609375 218.44921875 C-234.36050825 220.29546581 -232.17375877 222.19136575 -230 224.125 C-226.81195454 226.94795232 -223.49849935 229.51559209 -220.05859375 232.0234375 C-218.32281656 233.33523571 -216.7351203 234.72686036 -215.125 236.1875 C-209.20707967 240.72037515 -202.40908131 241.27279271 -195.1875 240.4375 C-188.0396597 238.71001906 -182.19258747 235.39609222 -176.1171875 231.3515625 C-169.2570206 226.86958679 -161.98853485 223.0086669 -154.84375 219 C-153.75839966 218.39067627 -153.75839966 218.39067627 -152.65112305 217.76904297 C-151.24456724 216.98012017 -149.83720952 216.19262494 -148.42895508 215.40673828 C-145.61262895 213.83010584 -142.87463684 212.22892456 -140.1875 210.4375 C-137.12780525 210.1187818 -135.06810505 209.92128325 -132.375 211.5 C-129.33415891 216.46137231 -130.02025221 223.47145312 -129.96681213 229.16421509 C-129.95511818 230.0185697 -129.94342423 230.87292432 -129.93137592 231.75316846 C-129.89341778 234.60314931 -129.86189559 237.45316448 -129.83032227 240.30322266 C-129.80427812 242.35210696 -129.77780851 244.40098588 -129.75094604 246.44985962 C-129.69392369 250.85701477 -129.63961015 255.26419208 -129.5873127 259.67140579 C-129.50419903 266.64864025 -129.41319685 273.62575806 -129.32078552 280.60287476 C-129.0592191 300.44167224 -128.80813488 320.28059498 -128.56518555 340.11962891 C-128.4308881 351.08055265 -128.28999224 362.04137233 -128.14210552 373.00212133 C-128.04904262 379.92876602 -127.96412934 386.85544659 -127.88535893 393.78226781 C-127.83427314 398.10521439 -127.77550041 402.4280319 -127.71462631 406.75085068 C-127.68806488 408.74492694 -127.66459882 410.73904741 -127.64457893 412.73320007 C-127.54747427 422.2472442 -127.36440151 431.48113951 -125.63128281 440.86034966 C-124.9674656 444.71529113 -124.92633043 448.50480967 -124.94921875 452.40625 C-124.93383288 453.98177978 -124.91753189 455.55730084 -124.90039062 457.1328125 C-124.88383591 459.55326031 -124.87510249 461.97305372 -124.88208008 464.39355469 C-124.88469698 466.7735052 -124.85666485 469.15155455 -124.82421875 471.53125 C-124.83952888 472.61255188 -124.83952888 472.61255188 -124.85514832 473.71569824 C-124.78168955 477.49460351 -124.33331724 479.25375397 -121.96020508 482.24414062 C-117.07412697 486.10929214 -114.02622843 487.81232142 -107.6984787 487.81502342 C-107.05769058 487.81938374 -106.41690246 487.82374407 -105.75669652 487.82823652 C-103.60674758 487.8391961 -101.45743952 487.82876806 -99.30749512 487.81845093 C-97.75169022 487.82190723 -96.19588778 487.8266716 -94.64009047 487.83263266 C-90.36258046 487.84517619 -86.0852708 487.83895708 -81.80776 487.82967401 C-77.19556162 487.82289756 -72.58339815 487.83335776 -67.97120667 487.84161377 C-58.93502646 487.85496832 -49.89892093 487.8520657 -40.86273777 487.84337585 C-33.52021555 487.83660648 -26.17771427 487.83567934 -18.83518982 487.8389473 C-17.7909997 487.839407 -16.74680957 487.83986669 -15.67097732 487.84034032 C-13.54986464 487.84129948 -11.42875197 487.84227212 -9.3076393 487.8432581 C10.59186475 487.85181704 30.49132736 487.84196996 50.39082462 487.825857 C67.47329836 487.81245336 84.55571095 487.81478132 101.63818359 487.82861328 C121.46546101 487.8446602 141.2927021 487.85099302 161.1199851 487.84177649 C163.23338667 487.84082082 165.34678824 487.83987771 167.46018982 487.8389473 C168.50008089 487.83848447 169.53997196 487.83802164 170.61137488 487.83754479 C177.94686315 487.83495224 185.28232841 487.83933162 192.61781311 487.84638596 C201.55476159 487.85479128 210.491631 487.85254121 219.42857039 487.83654372 C223.99016906 487.82864797 228.55163581 487.82559158 233.11323357 487.83549118 C237.28670874 487.84441163 241.45992932 487.83954916 245.63338131 487.82355852 C247.1454213 487.82019945 248.65748268 487.82192999 250.16950899 487.82918589 C252.22114019 487.83827818 254.27189368 487.82898369 256.3234787 487.81502342 C257.46410625 487.81453637 258.6047338 487.81404931 259.77992582 487.81354749 C265.3836583 487.11866934 269.36540978 483.78121908 272.8125 479.4375 C273.29789266 476.60255012 273.48923151 474.35721311 273.44921875 471.53125 C273.45959671 470.77009888 273.46997467 470.00894775 273.48066711 469.22473145 C273.51026193 466.79519438 273.50700406 464.36718355 273.5 461.9375 C273.50898679 459.53681175 273.52535022 457.13652581 273.5514679 454.73596191 C273.56600188 453.24766635 273.57042283 451.75921494 273.56169128 450.27087402 C273.58413275 446.03891577 274.02849742 442.09434666 274.79804993 437.93182373 C276.25848147 428.59843625 276.19614187 419.25568842 276.28320312 409.82714844 C276.30899668 407.77088401 276.33562614 405.71462993 276.36302185 403.65838623 C276.42003482 399.25461981 276.4714303 394.8508375 276.51841736 390.44695282 C276.59303116 383.47867659 276.68176996 376.51062285 276.77258301 369.5425415 C276.97953862 353.50045879 277.16846065 337.45817361 277.35677338 321.41586304 C277.52970804 306.69463934 277.70650358 291.97349092 277.89856482 277.25250268 C277.98835053 270.32976125 278.06906215 263.40699218 278.14276886 256.48406172 C278.1905026 252.17661125 278.24603637 247.86928665 278.30366707 243.56195831 C278.32872741 241.56942074 278.35056162 239.57683949 278.36887932 237.58422852 C278.39439049 234.85753697 278.43159177 232.13123673 278.47155762 229.40472412 C278.47604054 228.62270811 278.48052346 227.8406921 278.48514223 227.03497863 C278.57914491 221.75460608 279.03598863 216.4484704 280.8125 211.4375 C283.82200175 209.93274912 285.42108868 210.01357359 288.8125 210.4375 C292.2965749 212.20024078 295.52592931 214.33509829 298.8125 216.4375 C300.22138129 217.2429403 301.63789817 218.03520328 303.0625 218.8125 C306.87010401 220.91002221 310.6584182 223.03894338 314.4375 225.1875 C315.02635986 225.52201172 315.61521973 225.85652344 316.22192383 226.20117188 C319.44736098 228.04502012 322.63882848 229.93190227 325.80078125 231.8828125 C326.46062012 232.28790039 327.12045898 232.69298828 327.80029297 233.11035156 C329.06294886 233.88887869 330.32140647 234.67427354 331.57470703 235.46777344 C339.22281023 240.17722786 347.07478045 241.7239077 355.87890625 240.04296875 C361.20351485 238.37566707 365.12349285 235.04116753 369.3515625 231.49609375 C372.15407095 229.15177319 375.06437891 226.99997058 378.0234375 224.859375 C379.89852944 223.42440295 379.89852944 223.42440295 381.73828125 221.51171875 C383.922592 219.327408 386.21348121 217.4299559 388.625 215.5 C393.26189872 211.74720331 397.76789178 207.87320482 402.25 203.9375 C407.75675085 199.11190998 413.38084113 194.62269263 419.32421875 190.33984375 C421.70802419 188.51737397 423.71105137 186.57243785 425.8125 184.4375 C427.35645747 183.1442023 428.92011389 181.87415311 430.5 180.625 C431.37398437 179.93148437 432.24796875 179.23796875 433.1484375 178.5234375 C435.62803698 176.58193292 438.12481483 174.66485754 440.625 172.75 C442.02101307 171.64606059 443.41686621 170.54191887 444.8125 169.4375 C446.3284375 168.2928125 446.3284375 168.2928125 447.875 167.125 C450.41604544 163.60032407 450.53390057 161.06907967 450.28125 156.79296875 C449.05574566 150.63480942 442.30197879 147.61350526 437.45703125 144.30078125 C434.98435066 142.55858237 432.65024684 140.73034067 430.3125 138.8125 C425.47735803 134.88877456 420.4785953 131.21478359 415.4375 127.5625 C414.65181641 126.99063965 413.86613281 126.4187793 413.05664062 125.82958984 C411.93418945 125.02062256 411.93418945 125.02062256 410.7890625 124.1953125 C410.11955566 123.7120752 409.45004883 123.22883789 408.76025391 122.73095703 C406.83194134 121.39155798 406.83194134 121.39155798 404.68457031 120.38305664 C402.23842575 119.14754309 400.72596195 117.39067532 398.8125 115.4375 C397.12936647 114.13347482 395.41889291 112.86423312 393.6875 111.625 C392.71296875 110.92503906 391.7384375 110.22507812 390.734375 109.50390625 C388.14632915 107.6735904 385.54507855 105.86479694 382.9375 104.0625 C379.0807122 101.37793274 375.33735386 98.56692525 371.625 95.6875 C366.76880245 91.92467388 361.87826546 88.2137546 356.9375 84.5625 C356.33139893 84.11036133 355.72529785 83.65822266 355.10083008 83.19238281 C352.18806169 81.05004226 349.29177207 79.10231169 346.1171875 77.3671875 C343.09681561 75.60351881 341.18737592 73.94822688 338.8125 71.4375 C337.33811861 70.3397269 335.83607318 69.27841189 334.3125 68.25 C330.40624739 65.56732358 326.59185868 62.79637055 322.8125 59.9375 C321.79285156 59.17308594 320.77320313 58.40867188 319.72265625 57.62109375 C317.97416604 56.30913935 316.23037145 54.9908415 314.49609375 53.66015625 C300.38742977 43.23201331 284.43223739 36.66593631 267.8125 31.4375 C265.99685547 30.83808594 265.99685547 30.83808594 264.14453125 30.2265625 C248.86497259 25.46177633 232.1908636 23.53405597 216.21875 23.296875 C214.51912109 23.26787109 214.51912109 23.26787109 212.78515625 23.23828125 C210.47022781 23.20442965 208.15501822 23.186198 205.83984375 23.18359375 C198.83087037 23.03209148 193.70604942 21.96659173 187.45654297 18.78320312 C183.15769307 16.59527509 178.6389006 14.99813373 174.125 13.3125 C172.79758789 12.81169922 172.79758789 12.81169922 171.44335938 12.30078125 C169.70945928 11.64720472 167.97406623 10.99757244 166.23706055 10.35229492 C164.69459815 9.77031862 163.15857169 9.17075934 161.63208008 8.5480957 C154.34831363 5.61514706 146.53725919 4.69541002 139.015625 7.46875 C134.63584854 10.04508909 132.45672095 12.39628768 130.875 17.25 C130.61396484 18.40435547 130.61396484 18.40435547 130.34765625 19.58203125 C130.17105469 20.19433594 129.99445313 20.80664062 129.8125 21.4375 C127.48333655 22.60208173 126.12436078 22.5680899 123.53004456 22.57794189 C122.18195206 22.58650711 122.18195206 22.58650711 120.80662537 22.59524536 C119.81800003 22.59636322 118.82937469 22.59748108 117.81079102 22.59863281 C116.25213318 22.60608017 116.25213318 22.60608017 114.6619873 22.61367798 C111.21345364 22.62832224 107.76496594 22.63510481 104.31640625 22.640625 C101.92748513 22.64637387 99.53856403 22.65213163 97.14964294 22.65789795 C92.13678776 22.6684139 87.12394865 22.67425292 82.11108398 22.67773438 C75.67678779 22.68322526 69.24270256 22.70726363 62.80847263 22.73570633 C57.8732185 22.75429568 52.93801561 22.7595363 48.00272942 22.76107025 C45.62998232 22.76410487 43.25723629 22.77216043 40.88452339 22.78525543 C37.57071824 22.80224104 34.25743409 22.80045408 30.94360352 22.79394531 C29.95700241 22.8031601 28.97040131 22.81237488 27.9539032 22.8218689 C27.05235504 22.81629974 26.15080688 22.81073059 25.22193909 22.80499268 C24.43824731 22.80645924 23.65455553 22.8079258 22.84711552 22.8094368 C20.25085318 22.33482845 19.38306899 21.53088702 17.8125 19.4375 C17.60625 18.344375 17.4 17.25125 17.1875 16.125 C15.49410549 11.58362381 13.72597394 9.98428841 9.61328125 7.55078125 C-0.90489037 3.36991805 -11.11878027 7.2958617 -20.91308594 11.47851562 Z " fill="#030303" transform="translate(311.1875,5.5625)"/>
</svg>
